<svg xmlns="http://www.w3.org/2000/svg" width="800" height="360" viewBox="0 0 800 360">
  <rect width="800" height="360" fill="#f8fafc"/>
  <text x="400" y="42" text-anchor="middle" font-size="22" font-family="Pretendard, Segoe UI, sans-serif" fill="#1f2937">Night Runbook + Productivity Metrics</text>

  <rect x="60" y="96" width="128" height="58" rx="10" fill="#dbeafe" stroke="#93c5fd"/>
  <text x="124" y="131" text-anchor="middle" font-size="15" fill="#1e3a8a">Priority Queue</text>

  <rect x="220" y="96" width="128" height="58" rx="10" fill="#dcfce7" stroke="#86efac"/>
  <text x="284" y="131" text-anchor="middle" font-size="15" fill="#166534">Execute (WIP=3)</text>

  <rect x="380" y="96" width="128" height="58" rx="10" fill="#fef9c3" stroke="#fde047"/>
  <text x="444" y="131" text-anchor="middle" font-size="15" fill="#92400e">Validation Gate</text>

  <rect x="540" y="96" width="128" height="58" rx="10" fill="#f3e8ff" stroke="#d8b4fe"/>
  <text x="604" y="131" text-anchor="middle" font-size="15" fill="#6b21a8">Batch Merge</text>

  <line x1="188" y1="125" x2="220" y2="125" stroke="#2563eb" stroke-width="3"/>
  <line x1="348" y1="125" x2="380" y2="125" stroke="#2563eb" stroke-width="3"/>
  <line x1="508" y1="125" x2="540" y2="125" stroke="#2563eb" stroke-width="3"/>

  <line x1="444" y1="166" x2="284" y2="216" stroke="#ef4444" stroke-width="3" stroke-dasharray="8 6"/>
  <polygon points="284,216 295,206 297,220" fill="#ef4444"/>
  <text x="378" y="214" text-anchor="middle" font-size="14" fill="#b91c1c">실패건은 즉시 재작업 큐로</text>

  <rect x="74" y="246" width="306" height="88" rx="12" fill="#fff7ed" stroke="#fdba74"/>
  <text x="227" y="274" text-anchor="middle" font-size="16" fill="#9a3412">야간 실행 구간</text>
  <text x="227" y="300" text-anchor="middle" font-size="14" fill="#c2410c">22:00 ~ 06:00</text>
  <text x="227" y="320" text-anchor="middle" font-size="14" fill="#c2410c">WIP 제한 + 배치 통합</text>

  <rect x="420" y="246" width="306" height="88" rx="12" fill="#ecfeff" stroke="#67e8f9"/>
  <text x="573" y="272" text-anchor="middle" font-size="16" fill="#155e75">아침 생산성 브리핑</text>
  <text x="573" y="296" text-anchor="middle" font-size="14" fill="#0f766e">Throughput: 9개 완료</text>
  <text x="573" y="316" text-anchor="middle" font-size="14" fill="#0f766e">Cycle Time: 평균 42분</text>
</svg>
