<svg xmlns="http://www.w3.org/2000/svg" width="800" height="360" viewBox="0 0 800 360">
  <rect width="800" height="360" fill="#f8fafc"/>
  <text x="400" y="42" text-anchor="middle" font-size="22" font-family="Pretendard, Segoe UI, sans-serif" fill="#1f2937">Night Runbook + Approval Gate</text>

  <rect x="76" y="96" width="120" height="58" rx="10" fill="#dbeafe" stroke="#93c5fd"/>
  <text x="136" y="131" text-anchor="middle" font-size="15" fill="#1e3a8a">Queue</text>

  <rect x="236" y="96" width="120" height="58" rx="10" fill="#dcfce7" stroke="#86efac"/>
  <text x="296" y="131" text-anchor="middle" font-size="15" fill="#166534">Execute</text>

  <rect x="396" y="96" width="120" height="58" rx="10" fill="#fef9c3" stroke="#fde047"/>
  <text x="456" y="131" text-anchor="middle" font-size="15" fill="#92400e">Validate</text>

  <rect x="556" y="96" width="120" height="58" rx="10" fill="#f3e8ff" stroke="#d8b4fe"/>
  <text x="616" y="131" text-anchor="middle" font-size="15" fill="#6b21a8">Merge</text>

  <line x1="196" y1="125" x2="236" y2="125" stroke="#2563eb" stroke-width="3"/>
  <line x1="356" y1="125" x2="396" y2="125" stroke="#2563eb" stroke-width="3"/>
  <line x1="516" y1="125" x2="556" y2="125" stroke="#2563eb" stroke-width="3"/>

  <line x1="456" y1="166" x2="296" y2="216" stroke="#ef4444" stroke-width="3" stroke-dasharray="8 6"/>
  <polygon points="296,216 307,206 309,220" fill="#ef4444"/>
  <text x="390" y="214" text-anchor="middle" font-size="14" fill="#b91c1c">테스트 실패 시 자동 반려</text>

  <rect x="100" y="246" width="270" height="84" rx="12" fill="#fff7ed" stroke="#fdba74"/>
  <text x="235" y="276" text-anchor="middle" font-size="16" fill="#9a3412">자동 실행 구간</text>
  <text x="235" y="300" text-anchor="middle" font-size="14" fill="#c2410c">22:00 ~ 06:00</text>

  <rect x="430" y="246" width="270" height="84" rx="12" fill="#fee2e2" stroke="#fca5a5"/>
  <text x="565" y="276" text-anchor="middle" font-size="16" fill="#991b1b">Human Approval Gate</text>
  <text x="565" y="300" text-anchor="middle" font-size="14" fill="#b91c1c">고위험 변경만 승인 필요</text>
</svg>
